# xmcd
#
# Track frame offsets:
#  150
#  19121
#  40159
#  57073
#  72549
#  85664
#  96125
#  107859
#  121795
#  134805
#  146757
#  157238
#  169886
#  182249
#
# Disc length: 2599 seconds
#
# Revision: 0
# Processed by: cddbd v1.5PL3 Copyright (c) Steve Scherf et al.
# Submitted via: AltoMP3_Maker 3.0
#
DISCID=cb0a250e
DTITLE=Ray Charles - Original Hits
DYEAR=1900
DGENRE=
TTITLE0=I Can't Stop Loving You
TTITLE1=E'vry Time We Say Goodbye
TTITLE2=For All We Know
TTITLE3=You And I
TTITLE4=I LIke To Heart It Sometime
TTITLE5=Ain't That Fine
TTITLE6=How Long Blues
TTITLE7=I'm Going Down To The River
TTITLE8=Baby, Won't You Please Come Home
TTITLE9=Can't You See Darling
TTITLE10=Now She's Gone
TTITLE11=Going Down Slow
TTITLE12=Honey Honey
TTITLE13=Don't Put All Your Dreams In One Basket
EXTD=
EXTT0=
EXTT1=
EXTT2=
EXTT3=
EXTT4=
EXTT5=
EXTT6=
EXTT7=
EXTT8=
EXTT9=
EXTT10=
EXTT11=
EXTT12=
EXTT13=
PLAYORDER=
